<?xml version="1.0" encoding="UTF-8" standalone="no"?>
<!-- Generator: Adobe Illustrator 24.1.2, SVG Export Plug-In . SVG Version: 6.00 Build 0)  -->

<svg
   version="1.1"
   id="Слой_1"
   x="0px"
   y="0px"
   viewBox="0 0 200 200"
   style="enable-background:new 0 0 200 200;"
   xml:space="preserve"
   sodipodi:docname="logo.svg"
   inkscape:version="1.3.2 (091e20e, 2023-11-25, custom)"
   xmlns:inkscape="http://www.inkscape.org/namespaces/inkscape"
   xmlns:sodipodi="http://sodipodi.sourceforge.net/DTD/sodipodi-0.dtd"
   xmlns="http://www.w3.org/2000/svg"
   xmlns:svg="http://www.w3.org/2000/svg"><defs
   id="defs8" /><sodipodi:namedview
   id="namedview8"
   pagecolor="#505050"
   bordercolor="#eeeeee"
   borderopacity="1"
   inkscape:showpageshadow="0"
   inkscape:pageopacity="0"
   inkscape:pagecheckerboard="0"
   inkscape:deskcolor="#505050"
   inkscape:zoom="4"
   inkscape:cx="65.625"
   inkscape:cy="81.875"
   inkscape:window-width="1920"
   inkscape:window-height="1051"
   inkscape:window-x="-9"
   inkscape:window-y="-9"
   inkscape:window-maximized="1"
   inkscape:current-layer="Слой_1" />
<style
   type="text/css"
   id="style1">
	.st0{opacity:0.5;fill:#1E1E2F;}
	.st1{fill:none;stroke:#CCCCCC;stroke-width:1.5;}
	.st2{fill:#8888EE;}
	.st3{fill:none;stroke:#B4CCBE;stroke-width:2.5;}
	.st4{fill:none;stroke:#7EA8CC;stroke-width:2.5;}
	.st5{fill:none;stroke:#4B65FF;stroke-width:2.5;}
	.st6{fill:#FAFA91;}
	.st7{fill:none;stroke:#FFFFFF;stroke-width:2;}
	.st8{fill:#FF5555;}
</style>
<rect
   class="st0"
   width="200"
   height="200"
   id="rect1"
   inkscape:label="rect1"
   style="fill:#962323;fill-opacity:0.50238097" />
<g
   id="g3">
	<line
   class="st1"
   x1="140"
   y1="90"
   x2="200"
   y2="90"
   id="line1" />
	<line
   class="st1"
   x1="140"
   y1="110"
   x2="200"
   y2="110"
   id="line2" />
	<line
   class="st1"
   x1="140"
   y1="130"
   x2="200"
   y2="130"
   id="line3" />
</g>
<g
   id="g5">
	<circle
   class="st2"
   cx="155"
   cy="90"
   r="2"
   id="circle3" />
	<circle
   class="st2"
   cx="170"
   cy="90"
   r="2"
   id="circle4" />
	<circle
   class="st2"
   cx="185"
   cy="90"
   r="2"
   id="circle5" />
</g>


<g
   id="g9"
   inkscape:label="g9"><path
     class="st4"
     d="M0,100c12.2-9.1,25.1,17.8,35.6,17.4c4.3-0.1,30.4-32.6,40.3-28.7C99.2,97.9,90,115,110,100"
     id="path6"
     style="enable-background:new 0 0 200 200" /><path
     class="st3"
     d="M0,100c12.2-9.1,29.7-9.9,41.9,0c7.8,6.3,11.1,9.6,18.9,15.5c20,15,29.2-0.5,49.2-15.5"
     id="path5"
     style="enable-background:new 0 0 200 200" /><path
     class="st5"
     d="M0,100c20-15,40-15,60,0s30,15,50,0"
     id="path7" /></g>
<g
   transform="scale(-1,1) translate(-200,0)"
   id="g8">
	<path
   class="st6"
   d="M90,63.5c24.3,24.3,24.3,48.7,0,73L90,63.5z"
   id="path8"
   style="fill:#ff9955" />
	<ellipse
   style="enable-background:new 0 0 200 200;fill:#803300;stroke-width:1.01888"
   id="path9"
   cx="-90"
   cy="100"
   transform="scale(-1,1)"
   rx="5.1040764"
   ry="36.5" /><line
   class="st7"
   x1="95.10408"
   y1="100"
   x2="53.5"
   y2="100"
   id="line8" />
	<path
   id="polygon8"
   class="st8"
   inkscape:label="polygon8"
   transform="translate(0,-1)"
   style="fill:#ff5555"
   d="M 59.0625,88.100424 64.2,100 H 53.5 Z"
   sodipodi:nodetypes="cccc" />
</g>
</svg>
