<?xml version="1.0" encoding="utf-8"?>
<!-- Generator: Adobe Illustrator 24.1.2, SVG Export Plug-In . SVG Version: 6.00 Build 0)  -->
<svg version="1.1" id="Слой_1" xmlns="http://www.w3.org/2000/svg" xmlns:xlink="http://www.w3.org/1999/xlink" x="0px" y="0px"
	 viewBox="0 0 200 200" style="enable-background:new 0 0 200 200;" xml:space="preserve">
<style type="text/css">
	.st0{opacity:0.5;fill:#1E1E2F;}
	.st1{fill:none;stroke:#CCCCCC;stroke-width:1.5;}
	.st2{fill:#8888EE;}
	.st3{fill:none;stroke:#B4CCBE;stroke-width:2.5;}
	.st4{fill:none;stroke:#7EA8CC;stroke-width:2.5;}
	.st5{fill:none;stroke:#4B65FF;stroke-width:2.5;}
	.st6{fill:#FAFA91;}
	.st7{fill:none;stroke:#FFFFFF;stroke-width:2;}
	.st8{fill:#FF5555;}
</style>
<rect class="st0" width="200" height="200"/>
<g>
	<line class="st1" x1="140" y1="90" x2="200" y2="90"/>
	<line class="st1" x1="140" y1="110" x2="200" y2="110"/>
	<line class="st1" x1="140" y1="130" x2="200" y2="130"/>
</g>
<g>
	<circle class="st2" cx="155" cy="90" r="2"/>
	<circle class="st2" cx="170" cy="90" r="2"/>
	<circle class="st2" cx="185" cy="90" r="2"/>
</g>
<path class="st3" d="M0,100c12.2-9.1,29.7-9.9,41.9,0c7.8,6.3,11.1,9.6,18.9,15.5c20,15,29.2-0.5,49.2-15.5"/>
<path class="st4" d="M0,100c12.2-9.1,25.1,17.8,35.6,17.4c4.3-0.1,30.4-32.6,40.3-28.7C99.2,97.9,90,115,110,100"/>
<path class="st5" d="M0,100c20-15,40-15,60,0s30,15,50,0"/>
<g transform="scale(-1,1) translate(-200,0)">
	<path class="st6" d="M90,63.5c24.3,24.3,24.3,48.7,0,73L90,63.5z"/>
	<line class="st7" x1="90" y1="100" x2="53.5" y2="100"/>
	<polygon class="st8" points="53.5,100 60,82.8 64.2,100 	"/>
</g>
</svg>
